<svg xmlns="http://www.w3.org/2000/svg" viewBox="0 0 130.69 28"><defs><style>.cls-1{fill:#14a800;}</style></defs><title>logo</title><g id="Слой_2" data-name="Слой 2"><g id="Слой_1-2" data-name="Слой 1"><path class="cls-1" d="M3.65,14.13h.84l5.09,7.69h4.11L7.84,13.29a7.67,7.67,0,0,0,4.74-7.11H9c0,3.37-2.66,4.65-5.3,4.65V0H0V21.82H3.64Z"/><path class="cls-1" d="M110,7.86V6.18h-3.6V21.81H110V15.69c0-3.77.34-6.48,5.4-6.13V6c-2.36-.18-4.2.31-5.45,1.87"/><polygon class="cls-1" points="84.69 6.17 82.05 17.11 79.23 6.17 74.59 6.17 71.77 17.11 69.13 6.17 65.44 6.17 69.49 21.82 73.87 21.82 76.91 10.71 79.92 21.82 84.3 21.82 88.58 6.17 84.69 6.17"/><path class="cls-1" d="M96.6,19.07c-2.59,0-4.53-2.05-4.53-5s2-5,4.53-5A4.6,4.6,0,0,1,101.18,14c0,3-2,5-4.54,5m0-13.35a8.1,8.1,0,0,0-8.21,8c0,.13,0,.25,0,.37a8.18,8.18,0,1,0,16.35.57,5.42,5.42,0,0,0,0-.57,8.11,8.11,0,0,0-7.91-8.31H96.6"/><path class="cls-1" d="M120.65,14.13h.84l5.09,7.69h4.11l-5.85-8.53a7.67,7.67,0,0,0,4.74-7.11H126c0,3.37-2.66,4.65-5.3,4.65V0H117V21.82h3.64Z"/><path class="cls-1" d="M25.32,17a4.31,4.31,0,0,1-3.68,2l0,.07c-2.59,0-4.53-2.05-4.53-5s2-5,4.53-5A4.6,4.6,0,0,1,26.18,14a6.43,6.43,0,0,1-.08,1h3.64a3,3,0,0,0,0-.43,5.42,5.42,0,0,0,0-.57,8.11,8.11,0,0,0-7.91-8.31H21.6l0,0a8.1,8.1,0,0,0-8.21,8V14A8.17,8.17,0,0,0,29.3,17Z"/><polyline class="cls-1" points="27.18 15 16.18 15 16.18 12 27.18 12"/><path class="cls-1" d="M43.32,17a4.31,4.31,0,0,1-3.68,2l0,.07c-2.59,0-4.53-2.05-4.53-5s2-5,4.53-5A4.6,4.6,0,0,1,44.18,14a6.43,6.43,0,0,1-.08,1h3.64a3,3,0,0,0,0-.43,5.42,5.42,0,0,0,0-.57,8.11,8.11,0,0,0-7.91-8.31H39.6l0,0a8.1,8.1,0,0,0-8.21,8V14A8.17,8.17,0,0,0,47.3,17Z"/><polyline class="cls-1" points="45.18 15 34.18 15 34.18 12 45.18 12"/><path class="cls-1" d="M46.62,27.62c-.19-1.44-.33-2.45-.44-3.09a6.9,6.9,0,0,0,2.82.62,4,4,0,0,0,.83-.09,3.27,3.27,0,0,0,.78-.27,2.54,2.54,0,0,0,.47-.33,5,5,0,0,0,.67-.8,10.37,10.37,0,0,0,.73-1.14A9.91,9.91,0,0,0,53,21.31l-3.25-8.8L47.37,6.28l2.36,0,2.17,0c.22.8.43,1.49.61,2.08L54,12.9c.46,1.4.79,2.45,1,3.15.13.47.28,1.08.44,1.84.31-.88.58-1.59.81-2.14.41-1,1-2.34,1.7-4l1.52-3.46c.27-.62.54-1.28.83-2l2.14,0c.45,0,1.2,0,2.25,0l-6,12.47L56,24.26a9.11,9.11,0,0,1-1,1.66,4.69,4.69,0,0,1-1.89,1.44,8,8,0,0,1-1.46.47,9.78,9.78,0,0,1-1.79.17q-.53,0-1.44-.09A13.24,13.24,0,0,1,46.62,27.62Z"/></g></g></svg>