<svg xmlns="http://www.w3.org/2000/svg" viewBox="0 0 287.36 409.81"><defs><clipPath id="clip-path"><path d="M141.8 334.38s5.3-8.16 19.61-3 13.44 20 5.2 20.55-7.35-10.23-14.61-8.43-15.15.22-10.2-9.12" style="fill:none"/></clipPath><style>.cls-13{fill:none}.cls-6{fill:#00a588}.cls-11{fill:#ffdaae}.cls-12{fill:#fff}.cls-13{stroke:#00a588;stroke-miterlimit:10;stroke-width:1.02px}.cls-14{fill:#008c71}.cls-15{fill:#e4e6f4}.cls-16{fill:#edbf8c}.cls-17{fill:#351616}.cls-20{fill:#754d3e}.cls-21{fill:#59382e}</style></defs><g id="Слой_2" data-name="Слой 2"><g id="objects"><path style="fill:#7dbab1;opacity:.8" d="M0 394.08 193.72 70.34l40.95 14.47 35.51 309.27z"/><ellipse cx="135.09" cy="394.08" rx="135.09" ry="15.73" style="fill:#7dbab1"/><path d="M255.21 63.39c1.66-10.86-13.75-22.89-34.56-26.07s-39.35 5.3-40.77 14.55c-2.75 18 11.88 35.16 32.68 38.35s39.9-8.83 42.65-26.83" style="fill:#00503a"/><ellipse cx="218.19" cy="53.41" rx="26.34" ry="69.15" transform="rotate(-81.31 218.183 53.411)" style="fill:#00846b"/><ellipse class="cls-6" cx="218.89" cy="48.87" rx="26.34" ry="69.15" transform="rotate(-81.31 218.878 48.88)"/><path d="M183.63 27.33c-1.66 10.86 13.76 22.9 34.56 26.08S257.55 48.1 259 38.85c2.75-18-11.89-35.16-32.69-38.34s-39.93 8.83-42.68 26.82" style="fill:#83dbc6"/><path d="M248.62 11.17a34 34 0 0 1-.66 4.58C243.44 36.4 223.79 47 203.91 43.94A32.2 32.2 0 0 1 184 32.3c2.74 9.33 16.51 18.41 34.17 21.11C239 56.59 257.55 48.1 259 38.85c1.55-10.33-2.62-20.39-10.38-27.68" style="fill:#63a59a;opacity:.5"/><ellipse cx="211.67" cy="13.89" rx="12.04" ry="8.28" transform="rotate(-23.62 211.634 13.902)" style="fill:#eff7f7;opacity:.7"/><path d="M268.3 59.57a1.5 1.5 0 0 0 0-3 1.5 1.5 0 0 0 0 3m-11.08 5.77c3.86 0 3.87-6 0-6s-3.87 6 0 6M160 43.17c3.86 0 3.87-6 0-6s-3.87 6 0 6m8.57 8.73a1.5 1.5 0 0 0 0-3 1.5 1.5 0 0 0 0 3m11.52 4.97a1.5 1.5 0 0 0 0-3 1.5 1.5 0 0 0 0 3" style="fill:#fec100"/><path class="cls-11" d="M105 362.74s2.53 9.37 3 6.58a16.4 16.4 0 0 0 .23-4.09s4.11 8.7 3.63 3.8l-.49-4.9s8.73 8.71 3.13-.84l-.91-2.05s8.86-2.36-1.15-2.18-7.44 3.68-7.44 3.68m62 31.33s-8.09 5.37-6.56 3a16 16 0 0 1 2.52-3.23s-8.83 3.82-5.23.46l3.6-3.36s-12.3.78-1.79-2.7l2-.94s-5.09-7.62 2.31-.87 3.15 7.64 3.15 7.64m-29.04-176.06 10.13-6.22 1.59 3.5-10.24 7.64z"/><path class="cls-12" d="M147.17 218.9s-13.49-12.84-7-20l13.13 15.91Z"/><path class="cls-13" d="m140.21 198.92 13.13 15.91m-14.58-6.66 2.74-2.48m-1.55 4.32 2.75-2.48"/><path class="cls-11" d="m232.15 249.19-4.27-11.1-3.38 1.81 3.49 12.29z"/><path class="cls-12" d="M224.3 244.29s18.51-2 17.66-11.63l-20.1 4.66Z"/><path class="cls-13" d="m241.96 232.66-20.1 4.66m15.64 3.57-.68-3.64m-1.39 4.37-.68-3.63"/><path class="cls-6" d="M162.09 273.25a27.4 27.4 0 0 1-5.4-1l-.81-.22c-7-1.78-23.86-7.49-30.21-22-5.85-13.33.07-28 14.4-35.66l3.86 7.22c-8.5 4.55-15.5 14.36-10.76 25.15 3.4 7.75 12.65 14.23 24.75 17.33l.89.23c1.16.31 3.86 1 4.68.72l3.12 7.57a10.2 10.2 0 0 1-4.52.66"/><path class="cls-14" d="m158.81 264.3-.89-.23c-.93-.24-1.83-.5-2.71-.77-1.83 1.65-3.67 3.3-5.47 5-.4.45-.77.91-1.14 1.37a63 63 0 0 0 7.28 2.35l.81.22a27.4 27.4 0 0 0 5.4 1 10.2 10.2 0 0 0 4.52-.66l-3.12-7.58c-.82.34-3.49-.39-4.68-.7m45.98 21.7c-6.59-.39-13.11-2.1-18.18-3.43l2.08-7.92c13.79 3.62 26.69 6.11 32.81-3.1l.12-.17a24.54 24.54 0 0 0 3.43-23.22l7.68-2.85a32.69 32.69 0 0 1-4.47 30.87c-5.67 8.43-14.63 10.32-23.47 9.82"/><path class="cls-6" d="M154.4 275.36s5.74-19.3 30.49-12.91 12.33 34.89 12.33 34.89Z"/><path class="cls-14" d="M184.89 262.45a41.4 41.4 0 0 0-6.06-1.11 32.6 32.6 0 0 1 .35 10 33.24 33.24 0 0 1-5.06 14.15l23.1 11.86s12.43-28.52-12.33-34.9"/><path class="cls-12" d="m178.72 336.08-6.8 4.57a53.3 53.3 0 0 1 8.51 20.17c1.94 11-4.3 21.52-15.53 26.18l3.14 7.57c14.86-6.17 23.08-20.31 20.45-35.18a61.5 61.5 0 0 0-9.77-23.31m-71.99-9.23-.36.33c-9.49 9.64-7.51 25.17-1.65 35.51l7.13-4c-4.49-7.93-5.84-19.21.19-25.57 8.4-6.59 20.6-8.1 33.51-4.13l2.41-7.83c-15.65-4.84-30.68-2.75-41.23 5.69"/><path class="cls-12" d="M186.06 330.53c11.21-16.44 12.44-36.79 12.44-36.79-14.53-14.08-44.1-18.38-44.1-18.38a215.6 215.6 0 0 1-11.52 37.21s31.97 34.43 43.18 17.96"/><path class="cls-15" d="M182.13 358.43c1.81-1.14 3.58-2.32 5.33-3.54a63.8 63.8 0 0 0-8.74-18.81l-6.8 4.57a53.9 53.9 0 0 1 8.21 18.76Zm-58.97-30.64c6.71-1.64 14.41-1.28 22.39 1.17l2.41-7.83a50.8 50.8 0 0 0-26.11-1.44c.34 2.71.79 5.41 1.31 8.1"/><path class="cls-15" d="m176 280.94-4.12 7.22c-1.78 2.87-4.52 5.16-7.15 7.26a41.5 41.5 0 0 1-8.42 4.87 34.7 34.7 0 0 1-9.64 2.38c-2.14 6.05-3.79 9.9-3.79 9.9s32 34.4 43.18 18 12.44-36.79 12.44-36.79c-5.99-5.84-14.5-9.98-22.5-12.84"/><path class="cls-16" d="M134.28 315.71c-1.34 2.72-.67 5.79 1.5 6.86s5-.27 6.35-3 .67-5.8-1.5-6.86-5.01.29-6.35 3m46.95 24.68c-1.34 2.72-.66 5.79 1.5 6.86s5-.27 6.35-3 .67-5.79-1.5-6.86-5.01.28-6.35 3"/><circle class="cls-11" cx="161.53" cy="329.11" r="26.62" transform="rotate(-22.99 161.552 329.138)"/><path class="cls-16" d="M184.21 315.18a26.62 26.62 0 0 1-47.72 23 26.62 26.62 0 1 0 47.72-23"/><path class="cls-17" d="M141.8 334.38s5.3-8.16 19.61-3 13.44 20 5.2 20.55-7.35-10.23-14.61-8.43-15.15.22-10.2-9.12"/><g style="clip-path:url(#clip-path)"><path d="M148.38 347.83s-1.75-10.62 7.32-11.63 12.08 13.44 2.9 15.37-10.22-3.74-10.22-3.74" style="fill:#ce5b5b"/></g><path class="cls-12" d="M140.76 319.94a6.24 6.24 0 1 0 6.59-5.86 6.24 6.24 0 0 0-6.59 5.86"/><path class="cls-17" d="M145.36 320.21a1.63 1.63 0 1 0 1.72-1.53 1.63 1.63 0 0 0-1.72 1.53"/><circle class="cls-12" cx="175.97" cy="332.22" r="6.23" transform="rotate(-29.69 175.963 332.22)"/><path class="cls-17" d="M174.34 332.12a1.63 1.63 0 1 0 1.72-1.53 1.62 1.62 0 0 0-1.72 1.53"/><path class="cls-20" d="M141.79 302.32s22.26 28.41 42.78 21c9.74-3.52-.68-21.61-13.68-26.19-11.35-4.01-25.01.45-29.1 5.19"/><path class="cls-20" d="M187.8 320.53c-5.09 4-6.4 12.12-3.94 15.82l-1.79 4.72 1.88 1.11s1.42-2.87 3.89-3.59c8.05.5 5.55-22.45-.04-18.06"/><path class="cls-21" d="M163.21 319.52c-.77 0-1.53-.13-2.28-.23 7.17 4.29 15.54 6.95 23.64 4 4.15-1.5 4.63-5.66 2.81-10.28a38.62 38.62 0 0 1-24.17 6.51"/><path class="cls-21" d="M187.8 320.53c-5.09 4-6.4 12.12-3.94 15.82l-1.79 4.72 1.88 1.11s1.42-2.87 3.89-3.59c8.05.5 5.55-22.45-.04-18.06"/></g></g></svg>